<?xml version="1.0" encoding="UTF-8"?>
<svg id="Layer_1" data-name="Layer 1" xmlns="http://www.w3.org/2000/svg" viewBox="0 0 495.66 393.17">
  <defs>
    <style>
      .cls-1 {
        fill: #dfb7d6;
        stroke: #c891c1;
        stroke-miterlimit: 10;
        stroke-width: .99px;
      }
    </style>
  </defs>
  <path class="cls-1" d="M239.83,391.21c-.72-.72-1.37-2.93-1.49-4-.45-4.1.42-13.46.63-18.14,2.13-45.82,8.77-102.07,31.59-142.29,23.07-40.66,50.11-79.28,73.51-119.77,2.04-2.68,5.53-1.54,8.21-2.13,30.51-6.72,26.3-47.69-1.86-50.17-15.86-1.4-29.17,12.84-27.23,28.52.54,4.36,3.97,8.81,2.9,12.93l-102.09,166.81c-41.26,54.58-123.45,5.35-94.38-56.88l74.57-121.94c2.33-4.1,7.55-3.04,11.95-4.21,21.04-5.62,25.24-34.61,6.24-45.86-19.75-11.7-43.17,6.43-37.39,28.34,1.22,4.64,3.8,5.31,1.35,10.99-27.54,41.58-50.93,87.58-78.68,128.82-32.34,48.06-99.37,26.15-106.46-28.41-7.49-57.58,45.97-100.39,90.63-125.11,4.27-2.37,21.18-11.89,24.75-12.15,6.38-.45,10.63,6.27,8.14,12.08l-60.58,98.44c-2.21,1.87-7.93,1.42-11.2,2.37-19.79,5.75-24.01,32.7-7.44,44.69,18.79,13.61,44.24-3.54,39.48-25.9-.89-4.16-4.5-7.82-1.89-11.91L163.86,24.41c40.9-55.03,123.82-6.16,94.64,56.5l-74.18,121.69c-2.82,4.52-8.14,3.24-12.85,4.6-20.46,5.9-24.5,34.06-6.13,45.48,19.69,12.24,43.29-5.79,37.79-28.09-.85-3.45-3.83-6.67-1.58-10.57l99.86-163.23c38.96-56.86,121.97-12.02,97.54,51l-75.66,124.73c-2.83,4.48-8.06,3.01-12.59,4.22-21.03,5.63-24.44,36.52-4.52,46.59,19.29,9.75,39.75-5.86,36.7-27.01-.65-4.5-4.76-8.3-2.03-12.71l54.93-89.21c54.47-62.23,140.51,21.91,76.88,78.82-11.04,9.87-35.53,24.12-49.76,27.81-6.86,1.78-11.45-1.21-10.39-8.45l22.42-37.05c2.87-3.43,8.43-2.23,13.01-3.8,20.21-6.92,22.79-34.81,4.54-45.62-18.81-11.14-41.58,5.53-37.62,26.63.83,4.4,4.59,8.24,1.98,12.46-17.46,26.73-32.63,55.73-50.26,82.25-19.94,29.99-37.49,24.2-65.99,38.08-29.79,14.51-42.72,41.38-52.52,71.59-1.57,2.26-6.51,1.86-8.27.1h.01Z"/>
</svg>